<svg width="59" height="62" viewBox="0 0 59 62" fill="none" xmlns="http://www.w3.org/2000/svg">
<path d="M30.1719 2.91619L29.5001 2.67661L28.8283 2.9162L4.62188 11.549L3.12474 12.0829L3.30687 13.662L6.99867 45.6679L7.11655 46.6898L8.01647 47.1883L28.5311 58.5506L29.5001 59.0873L30.4691 58.5506L50.9837 47.1883L51.8837 46.6898L52.0015 45.6679L55.6933 13.6615L55.8755 12.0824L54.3783 11.5485L30.1719 2.91619Z" fill="#DD0031" stroke="#001E36" stroke-width="4"/>
<path d="M29.5 4.79999V10.5723V10.5464V56.801L50.0146 45.4387L53.7064 13.4323L29.5 4.79999Z" fill="#C3002F"/>
<path d="M29.4999 10.5464L14.3687 44.4764H20.0104L23.0507 36.8836H35.8948L38.9376 44.4769H44.5794L29.4999 10.5464ZM33.9194 32.2036H25.0804L29.4999 21.5695L33.9194 32.2036Z" fill="white"/>
</svg>
