<svg width="53" height="60" viewBox="0 0 53 60" fill="none" xmlns="http://www.w3.org/2000/svg">
<path d="M47.6919 15.9102L27.7308 4.3181C27.4001 4.10961 26.9455 4.02621 26.4496 4.02621C25.9537 4.02621 25.4991 4.15131 25.1685 4.3181L5.33131 15.9519C4.62874 16.3689 4.13281 17.4114 4.13281 18.2037V41.4296C4.13281 41.8883 4.21547 42.4304 4.54609 42.8891L48.6838 17.0361C48.4358 16.5357 48.0638 16.1604 47.6919 15.9102Z" fill="#9B4F96"/>
<path d="M4.4221 42.8474C4.62874 43.181 4.91803 43.4729 5.20733 43.6397L25.1271 55.2735C25.4578 55.482 25.9124 55.5654 26.4083 55.5654C26.9042 55.5654 27.3588 55.4403 27.6894 55.2735L47.5266 43.6397C48.2292 43.2227 48.7251 42.1802 48.7251 41.3879V18.162C48.7251 17.7867 48.6838 17.3697 48.4771 16.9944L4.4221 42.8474Z" fill="#68217A"/>
<path d="M48.8082 14.2507L48.7534 14.2139L48.6963 14.1807L28.7596 2.60282C27.9777 2.1241 27.1005 2.02621 26.4496 2.02621C25.6349 2.02621 24.8723 2.2274 24.2676 2.53247L24.2112 2.56093L24.1567 2.5929L4.31953 14.2267L4.31952 14.2267L4.31053 14.2321C3.53856 14.6902 3.0133 15.3939 2.69008 16.0223C2.36282 16.6585 2.13281 17.4295 2.13281 18.2037V41.4296C2.13281 41.5608 2.13724 41.7061 2.14958 41.862L1.6432 42.1592L2.72187 43.9006C2.92223 44.224 3.17638 44.5418 3.47368 44.8217L3.9873 45.5342L4.23605 45.3885L24.0956 56.9872C24.8783 57.4673 25.7567 57.5654 26.4083 57.5654C27.223 57.5654 27.9856 57.3642 28.5903 57.0591L28.6467 57.0307L28.7012 56.9987L48.5384 45.3649L48.5474 45.3595C49.3193 44.9014 49.8446 44.1977 50.1678 43.5693C50.4951 42.9331 50.7251 42.1621 50.7251 41.3879V18.162C50.7251 18.1607 50.7251 18.1595 50.7251 18.1583L51.3039 17.8192L50.4758 16.1481C50.2438 15.68 49.9512 15.2804 49.6326 14.9464L49.2377 14.2291L48.9865 14.3765C48.9271 14.3326 48.8676 14.2907 48.8082 14.2507Z" stroke="#001E36" stroke-width="4"/>
<path d="M35.2523 34.8413C33.5166 37.927 30.2104 40.0119 26.4496 40.0119C20.8704 40.0119 16.3244 35.4251 16.3244 29.7958C16.3244 24.1665 20.8704 19.5797 26.4496 19.5797C30.2104 19.5797 33.5166 21.6646 35.2523 24.792L40.6249 21.6646C37.8146 16.7025 32.5247 13.325 26.4496 13.325C17.4402 13.325 10.1252 20.7056 10.1252 29.7958C10.1252 38.886 17.4402 46.2667 26.4496 46.2667C32.4834 46.2667 37.7733 42.9308 40.5835 38.0104L35.2523 34.8413ZM40.0876 30.7132L40.4596 28.9201H38.7238V26.9603H40.8315L41.3274 24.375H43.3525L42.8565 26.9186H44.427L44.9229 24.375H46.9066L46.4107 26.9186H47.4026V28.8784H46.0388L45.6668 30.6715H47.4026V32.6313H45.2949L44.7989 35.1332H42.7739L43.2698 32.6313H41.6994L41.2035 35.1332H39.2197L39.7157 32.6313H38.7238V30.6715H40.0876V30.7132ZM42.0713 30.7132H43.6418L44.0137 28.9201H42.4433L42.0713 30.7132Z" fill="white"/>
</svg>
