<svg width="60" height="59" viewBox="0 0 60 59" fill="none" xmlns="http://www.w3.org/2000/svg">
<path d="M4.58252 1.82559H2.58252V3.82559V54.712V56.712H4.58252H55.2333H57.2333V54.712V3.82559V1.82559H55.2333H4.58252Z" fill="#512BD4" stroke="#001E36" stroke-width="4"/>
<path d="M13.61 36.3362C13.2519 36.3362 12.9476 36.2164 12.6969 35.9766C12.4462 35.7308 12.3208 35.4386 12.3208 35.1004C12.3208 34.7562 12.4462 34.4612 12.6967 34.2151C12.9476 33.9692 13.2519 33.8462 13.61 33.8462C13.9741 33.8462 14.2815 33.9692 14.5322 34.2151C14.789 34.4612 14.9172 34.7562 14.9172 35.1004C14.9172 35.4386 14.789 35.7306 14.5322 35.9766C14.2815 36.2164 13.9743 36.3364 13.6102 36.3364M27.9272 36.1337H25.5994L19.4661 26.4124C19.313 26.1707 19.184 25.9143 19.0811 25.6471H19.0273L19.0366 25.7077L19.0451 25.7773L19.053 25.8554L19.0605 25.9421L19.0702 26.0884L19.0785 26.2538L19.0854 26.4386L19.091 26.643L19.0949 26.8666L19.0969 27.0266L19.0989 27.4639V36.1333H17.0396V22.908H19.5197L25.4469 32.3981L25.5933 32.6305L25.6876 32.7831L25.7684 32.9173L25.8356 33.0332L25.8732 33.1004L25.9049 33.1592L25.9306 33.2099H25.9662L25.9595 33.1682L25.9468 33.0787L25.935 32.9807L25.9245 32.874C25.9228 32.8551 25.9212 32.8362 25.9197 32.8173L25.9106 32.6977L25.9027 32.5694L25.8958 32.4323L25.8875 32.2108L25.8815 31.9699L25.878 31.7095L25.8768 31.4299V22.908H27.927L27.9272 36.1337ZM37.9554 36.1337H30.748V22.908H37.6689V24.7711H32.8789V28.5154H37.293V30.3692H32.8789V34.2797H37.9554V36.1337ZM48.1987 24.7713H44.5095V36.1337H42.3787V24.7713H38.6986V22.908H48.1983L48.1987 24.7713Z" fill="white"/>
</svg>
