<svg width="60" height="60" viewBox="0 0 60 60" fill="none" xmlns="http://www.w3.org/2000/svg">
<path d="M43.5099 2H16.1965C8.42763 2 2.14648 8.32626 2.14648 16.1094V43.5573C2.14648 51.3404 8.42763 57.6667 16.1965 57.6667H43.5099C51.2787 57.6667 57.5599 51.3404 57.5599 43.5573V16.1094C57.5599 8.32626 51.2787 2 43.5099 2Z" fill="#242938" stroke="#001E36" stroke-width="4"/>
<path d="M49.9365 40.9209C49.3518 41.1434 48.7063 41.143 48.122 40.9197C47.5376 40.6963 47.0549 40.2656 46.7651 39.7089C44.945 36.9708 42.935 34.3562 41.0032 31.6855L40.1655 30.5633C37.8652 33.6605 35.5648 36.6342 33.4655 39.7202C33.1921 40.2523 32.7355 40.6663 32.1808 40.8852C31.6262 41.104 31.0112 41.1128 30.4506 40.9098L39.0824 29.2729L31.0535 18.7579C31.6315 18.5482 32.2637 18.5453 32.8436 18.7497C33.4234 18.9542 33.9153 19.3534 34.2361 19.88C36.1009 22.6184 38.1668 25.233 40.2214 28.0048C42.2873 25.2554 44.3308 22.6295 46.2403 19.9137C46.5153 19.3903 46.9721 18.9868 47.524 18.7798C48.0758 18.5729 48.684 18.5771 49.233 18.7916L46.1174 22.9437C44.7216 24.7952 43.3481 26.6581 41.8965 28.4648C41.7795 28.57 41.6858 28.6989 41.6217 28.8429C41.5576 28.987 41.5245 29.143 41.5245 29.3008C41.5245 29.4587 41.5576 29.6147 41.6217 29.7588C41.6858 29.9028 41.7795 30.0317 41.8965 30.1369C44.5654 33.6942 47.2118 37.2626 49.9365 40.9209ZM9.76978 29.127C10.0043 28.0048 10.1494 26.7816 10.4733 25.637C12.4051 18.7357 20.2776 15.8628 25.6935 20.1384C28.8648 22.641 29.6577 26.187 29.5015 30.1819H11.6347C11.3443 37.319 16.4698 41.6281 23.0246 39.4286C24.0879 39.0464 25.0397 38.404 25.7942 37.5596C26.5486 36.7152 27.082 35.6953 27.3461 34.5919C27.6924 33.4698 28.2507 33.2791 29.3115 33.6044C29.1368 34.9706 28.6562 36.2791 27.9058 37.4317C27.1553 38.5843 26.1546 39.551 24.9789 40.2589C23.0364 41.3265 20.8076 41.7495 18.6115 41.4673C16.4153 41.1851 14.3641 40.2123 12.7513 38.6879C11.1558 36.8851 10.191 34.6071 10.0043 32.2017C10.0043 31.8203 9.85915 31.4386 9.78102 31.0796C9.77363 30.4288 9.76988 29.7779 9.76978 29.127ZM11.657 28.6444H27.8153C27.7147 23.4713 24.4652 19.8017 20.1326 19.7682C15.3086 19.7008 11.858 23.2917 11.6458 28.622L11.657 28.6444Z" fill="white"/>
</svg>
