<svg width="53" height="52" viewBox="0 0 53 52" fill="none" xmlns="http://www.w3.org/2000/svg">
<g clip-path="url(#clip0_415_527)">
<path d="M8.02832 41.9559L14.4288 1.00024C14.4671 0.755479 14.5814 0.528945 14.7554 0.352637C14.9295 0.176329 15.1545 0.0591566 15.3988 0.0176704C15.643 -0.0238158 15.8941 0.0124807 16.1166 0.121433C16.3391 0.230386 16.5218 0.406488 16.6388 0.624866L23.2582 12.9708L25.8964 7.94712C25.9967 7.75656 26.1472 7.59702 26.3315 7.48573C26.5159 7.37444 26.7272 7.31561 26.9425 7.31561C27.1579 7.31561 27.3691 7.37444 27.5535 7.48573C27.7378 7.59702 27.8883 7.75656 27.9886 7.94712L45.8514 41.9559H8.02832Z" fill="#FFA000"/>
<path d="M30.1401 26.002L23.255 12.9646L8.02832 41.9558L30.1401 26.002Z" fill="#F57C00"/>
<path d="M45.8514 41.9558L40.9492 11.6203C40.913 11.4065 40.8186 11.2067 40.6764 11.0429C40.5343 10.8791 40.3498 10.7576 40.1432 10.6916C39.9367 10.6258 39.716 10.6181 39.5054 10.6693C39.2947 10.7204 39.1022 10.8285 38.9488 10.9817L8.02832 41.9554L25.1375 51.5502C25.6659 51.8452 26.261 52 26.8661 52C27.4713 52 28.0663 51.8452 28.5947 51.5502L45.8514 41.9558Z" fill="#FFCA28"/>
<path d="M40.9494 11.6204C40.9132 11.4065 40.8188 11.2068 40.6767 11.043C40.5345 10.8792 40.35 10.7576 40.1434 10.6917C39.9369 10.6258 39.7163 10.618 39.5056 10.6691C39.295 10.7202 39.1024 10.8282 38.949 10.9813L32.8118 17.1348L27.986 7.94705C27.8857 7.7565 27.7352 7.59696 27.5508 7.48567C27.3665 7.37437 27.1552 7.31555 26.9399 7.31555C26.7245 7.31555 26.5133 7.37437 26.3289 7.48567C26.1446 7.59696 25.9941 7.7565 25.8938 7.94705L23.2556 12.9703L16.6362 0.624804C16.519 0.406124 16.336 0.229839 16.1132 0.120911C15.8903 0.0119834 15.6388 -0.0240667 15.3942 0.017866C15.1499 0.0597871 14.9249 0.177464 14.7511 0.354254C14.5773 0.531044 14.4635 0.757999 14.4258 1.00302L8.02853 41.9559H8.00781L8.02812 41.9794L8.19672 42.0623L38.9401 11.2832C39.0934 11.1292 39.2862 11.0204 39.4973 10.9689C39.7084 10.9173 39.9296 10.9249 40.1367 10.9908C40.3437 11.0568 40.5286 11.1785 40.671 11.3427C40.8133 11.5069 40.9077 11.7071 40.9437 11.9214L45.8045 41.9851L45.8516 41.9555L40.9494 11.6204ZM8.08459 41.8998L14.4286 1.29268C14.4663 1.04752 14.5801 0.820437 14.754 0.643561C14.9279 0.466686 15.153 0.348984 15.3975 0.307116C15.6421 0.265219 15.8936 0.301329 16.1165 0.410333C16.3394 0.519336 16.5223 0.695706 16.6394 0.91446L23.258 13.2604L25.8966 8.23671C25.9969 8.04615 26.1474 7.88662 26.3318 7.77532C26.5161 7.66403 26.7274 7.60521 26.9427 7.60521C27.1581 7.60521 27.3693 7.66403 27.5537 7.77532C27.738 7.88662 27.8885 8.04615 27.9888 8.23671L32.7168 17.2291L8.08378 41.8998H8.08459Z" fill="white" fill-opacity="0.2"/>
<path opacity="0.2" d="M28.5946 51.2606C28.0662 51.5556 27.4711 51.7104 26.866 51.7104C26.2608 51.7104 25.6658 51.5556 25.1374 51.2606L8.06878 41.6934L8.02734 41.9563L25.1366 51.5478C25.665 51.8428 26.26 51.9976 26.8652 51.9976C27.4703 51.9976 28.0654 51.8428 28.5937 51.5478L45.8512 41.9563L45.8066 41.6841L28.5937 51.2614L28.5946 51.2606Z" fill="#A52714"/>
</g>
<defs>
<clipPath id="clip0_415_527">
<rect width="52" height="52" fill="white" transform="translate(0.929688)"/>
</clipPath>
</defs>
</svg>
