<svg width="61" height="61" viewBox="0 0 61 61" fill="none" xmlns="http://www.w3.org/2000/svg">
<g clip-path="url(#clip0_350_423)">
<path d="M46.7031 0H14.2969C6.40093 0 0 6.40093 0 14.2969V46.7031C0 54.5991 6.40093 61 14.2969 61H46.7031C54.5991 61 61 54.5991 61 46.7031V14.2969C61 6.40093 54.5991 0 46.7031 0Z" fill="#330000"/>
<path d="M29.4832 36.2981H20.0282L18.0964 42.2711C18.0457 42.4998 17.8424 42.6523 17.6137 42.6268H12.8352C12.5557 42.6268 12.4794 42.4743 12.5557 42.1693L20.7399 18.6081C20.8162 18.3541 20.8924 18.0743 20.9939 17.7693C21.0957 17.2356 21.1464 16.6766 21.1464 16.1173C21.1212 15.9903 21.2227 15.8631 21.3499 15.8378H27.9327C28.1362 15.8378 28.2377 15.9141 28.2632 16.0411L37.5402 42.2203C37.6164 42.4998 37.5402 42.6268 37.2862 42.6268H31.9739C31.7962 42.6523 31.6182 42.5253 31.5674 42.3473L29.4832 36.2981ZM21.5024 31.1386H27.9582C27.8057 30.6048 27.6024 29.9693 27.3737 29.3086C27.1449 28.6223 26.9162 27.8853 26.6874 27.1228C26.4332 26.3348 26.2044 25.5723 25.9502 24.7843C25.6962 23.9966 25.4674 23.2593 25.2639 22.5223C25.0607 21.8108 24.8827 21.1498 24.7049 20.5398H24.6539C24.4252 21.6328 24.1457 22.7258 23.7899 23.8186C23.4087 25.0386 23.0274 26.3093 22.6207 27.5803C22.2925 28.7799 21.9195 29.9669 21.5024 31.1386ZM43.2082 20.2856C42.3694 20.3111 41.5562 19.9806 40.9462 19.3961C40.3617 18.7606 40.0567 17.9218 40.0819 17.0578C40.0567 16.1936 40.3869 15.3803 40.9969 14.7956C41.6069 14.2108 42.4204 13.9061 43.2592 13.9061C44.2504 13.9061 45.0129 14.2111 45.5719 14.7956C46.1353 15.4117 46.4362 16.2233 46.4107 17.0578C46.4362 17.9218 46.1312 18.7606 45.5212 19.3961C44.9367 20.0061 44.0724 20.3366 43.2082 20.2856ZM40.3617 42.3473V22.7766C40.3617 22.5223 40.4632 22.4206 40.6919 22.4206H45.7244C45.9532 22.4206 46.0549 22.5478 46.0549 22.7766V42.3473C46.0549 42.6268 45.9532 42.7541 45.7244 42.7541H40.7429C40.4887 42.7541 40.3617 42.6016 40.3617 42.3473Z" fill="#FF9A00"/>
</g>
<defs>
<clipPath id="clip0_350_423">
<rect width="61" height="61" fill="white"/>
</clipPath>
</defs>
</svg>
