<svg width="41" height="58" viewBox="0 0 41 58" fill="none" xmlns="http://www.w3.org/2000/svg">
<path d="M14.7779 45.4383C14.7934 45.3135 14.7731 45.1689 14.7007 45.0396C14.6489 44.9471 14.5939 44.9045 14.5825 44.8965M14.7779 45.4383L14.3565 40.21C14.1099 40.1839 13.915 40.1508 13.763 40.1158C13.7658 40.1135 13.768 40.1117 13.7699 40.1102L13.7744 40.1066C13.7742 40.1067 13.7739 40.107 13.7734 40.1074L13.7718 40.1086L13.7707 40.1094L13.7701 40.1099C13.7701 40.1099 13.77 40.1099 13.7677 40.107L12.844 38.3664C11.788 38.7251 10.9576 39.124 10.406 39.5862C9.85042 40.0516 9.36641 40.7925 9.67699 41.6773C9.9279 42.3922 10.6047 42.8353 11.195 43.1158C11.8419 43.4232 12.6699 43.6674 13.6069 43.8521C13.6138 43.8535 13.6207 43.8549 13.6277 43.8562C12.8442 44.1118 12.2042 44.4223 11.7541 44.8101C11.4826 45.044 11.241 45.3397 11.1089 45.7075C10.9708 46.0921 10.9772 46.489 11.1041 46.8558C11.3364 47.5269 11.929 47.9961 12.4912 48.3174C13.0924 48.6611 13.8563 48.9475 14.7151 49.1711C18.1252 50.0591 23.6767 50.1188 28.6075 47.9571L30.7985 46.9965L28.5756 46.1121C27.8507 45.8236 27.2257 45.512 26.7824 45.2724C26.5613 45.1529 26.387 45.0522 26.2698 44.9826C26.2112 44.9478 26.167 44.9208 26.1385 44.9031L26.1076 44.8839L26.1013 44.8799L26.1013 44.8799L26.1011 44.8798L26.101 44.8797L26.1007 44.8796L26.1005 44.8794L25.7647 44.6646L25.3725 44.7405C21.2761 45.5329 19.4351 45.5911 15.7381 45.1589C14.9874 45.0708 14.6783 44.9515 14.5889 44.9004C14.586 44.8987 14.5839 44.8974 14.5825 44.8965M14.7779 45.4383L14.1341 43.9479M14.7779 45.4383L14.1341 43.9479M14.5825 44.8965C14.5812 44.8956 14.5804 44.8951 14.5804 44.8951C14.5804 44.8951 14.581 44.8956 14.5825 44.8965ZM14.1341 43.9479C17.9047 44.5777 23.7773 44.4303 29.3412 42.7651L32.2474 41.8953L29.3936 40.8664C28.9059 40.6905 28.4982 40.4376 28.2098 40.224C28.0672 40.1184 27.9581 40.0256 27.8875 39.9622C27.8524 39.9306 27.8271 39.9067 27.8125 39.8924L27.799 39.8792L27.7986 39.8788C27.7976 39.8778 27.7974 39.8775 27.7978 39.878L27.4229 39.4881L26.8873 39.5936C21.4397 40.6665 18.3319 40.63 14.3568 40.2101L14.1341 43.9479ZM14.8341 45.5465L14.8334 45.547C14.8348 45.546 14.8351 45.5459 14.8341 45.5465Z" fill="#0074BD" stroke="#001E36" stroke-width="2"/>
<path d="M22.0853 30.8347L22.0857 30.8351C22.543 31.3737 22.7016 31.8457 22.7343 32.2333C22.7678 32.6325 22.6736 33.0204 22.5056 33.3836C22.3364 33.7493 22.105 34.062 21.9077 34.288C21.8108 34.3991 21.7264 34.4844 21.669 34.5395C21.6404 34.5669 21.6188 34.5865 21.6062 34.5978L21.5953 34.6075L21.5963 34.6067L21.5969 34.6061C21.597 34.6061 21.597 34.606 21.601 34.6106L22.7073 36.2559L22.2403 35.3717C22.7073 36.2559 22.7077 36.2557 22.708 36.2556L22.7088 36.2551L22.7109 36.254L22.7165 36.251L22.7342 36.2415C22.7487 36.2336 22.7686 36.2227 22.7935 36.2088C22.8432 36.181 22.9129 36.1412 22.999 36.09C23.1709 35.9878 23.4096 35.839 23.6856 35.6481C24.2326 35.27 24.951 34.7097 25.5876 34C26.2187 33.2963 26.8223 32.3869 27.0427 31.31C27.2714 30.1928 27.0666 28.9922 26.2424 27.8045L26.2418 27.8036C26.1236 27.6337 26.01 27.472 25.9012 27.3172C25.3958 26.5982 24.9945 26.0274 24.7253 25.4664C24.4235 24.8377 24.3516 24.3427 24.5121 23.8137C24.6884 23.233 25.1896 22.462 26.3829 21.4139C27.5667 20.374 29.3484 19.1327 31.9449 17.5917L31.9041 17.5229C32.0782 17.3599 32.3133 17.0891 32.4346 16.7318V14.9754L31.0424 15.8016C31.0243 15.8066 31.0046 15.8121 30.9833 15.818C30.8574 15.8531 30.6766 15.9051 30.4508 15.9743C29.9998 16.1124 29.3673 16.3196 28.6342 16.5979C27.1775 17.1509 25.2817 18.0002 23.6213 19.1718C21.979 20.3305 20.4338 21.8986 19.91 23.9308C19.3682 26.0321 19.9826 28.355 22.0853 30.8347ZM21.5944 34.6083C21.5936 34.6089 21.5935 34.609 21.594 34.6086L21.5944 34.6083Z" fill="#EA2D2E" stroke="#001E36" stroke-width="2"/>
<path d="M31.2893 36.4452L31.2879 36.4458L31.2795 36.4495L31.2426 36.4661C31.2094 36.4811 31.1599 36.5036 31.0972 36.5329C30.9715 36.5916 30.7938 36.6767 30.5888 36.7808C30.1717 36.9926 29.6707 37.2686 29.2657 37.5512L29.1223 37.6513L28.9534 37.6968C24.3802 38.9278 17.7675 39.2444 12.9366 38.9564C10.547 38.814 8.45241 38.517 7.24236 38.0447C6.93335 37.9241 6.6184 37.7686 6.36112 37.5576C6.10838 37.3503 5.79724 36.9912 5.76957 36.4677C5.74169 35.9403 6.01687 35.5431 6.26603 35.2968C6.51739 35.0484 6.84603 34.8451 7.19851 34.6707L31.2893 36.4452ZM31.2893 36.4452L31.2894 36.4451C31.2894 36.4451 31.2894 36.4451 31.289 36.4442L31.0269 35.5887M31.2893 36.4452L31.0269 35.5887M30.3241 34.6134C30.2567 34.625 30.1811 34.6379 30.0978 34.652C29.7066 34.7182 29.1466 34.8098 28.4747 34.9111C27.1287 35.114 25.3426 35.3542 23.5658 35.5069L30.3241 34.6134ZM30.3241 34.6134L30.9083 33.6758L31.757 34.2046C30.9083 33.6758 30.9085 33.6755 30.9087 33.6752L30.909 33.6747L30.9097 33.6735L30.9113 33.6711L30.9147 33.6656L30.923 33.6529C30.9291 33.6435 30.9365 33.6324 30.9451 33.6198C30.9624 33.5947 30.9848 33.5633 31.0125 33.5272C31.0675 33.4554 31.1452 33.3623 31.246 33.2617C31.4434 33.0646 31.7558 32.8127 32.186 32.657L32.1879 32.6563C35.5152 31.4597 38.8224 33.1763 39.2558 36.1321C39.4708 37.5984 38.9162 39.161 37.5522 40.5269C36.2005 41.8805 34.0418 43.0643 30.931 43.9012L29.6712 44.2401V42.9355C29.6793 42.8084 29.7239 42.6151 29.7492 42.5485C29.7671 42.5083 29.8007 42.4433 29.8155 42.418C29.8444 42.3702 29.8711 42.3355 29.8809 42.3228C29.9036 42.2936 29.923 42.272 29.9283 42.2661L29.9284 42.266C29.9382 42.2552 29.9467 42.2462 29.9519 42.2409L30.0443 41.9891L30.3818 41.8097C34.8177 39.4516 35.4647 37.4248 35.301 36.4431C35.1257 35.3916 33.951 34.6955 32.9952 34.8992L32.9952 34.8993C32.6678 34.969 32.4391 35.0325 32.2996 35.0755C32.2299 35.097 32.1824 35.1133 32.1561 35.1228C32.1441 35.1271 32.1365 35.1299 32.1332 35.1312C32.1328 35.1314 32.1325 35.1315 32.1322 35.1316M30.3241 34.6134L32.1319 35.1317C32.1307 35.1322 32.1308 35.1321 32.1322 35.1316M32.1322 35.1316L31.0269 35.5887M32.1322 35.1316L31.0269 35.5887M12.3378 35.6533C14.6359 35.9491 19.22 35.8799 23.5656 35.507L12.3378 35.6533ZM12.3378 35.6533C12.9378 35.4247 13.618 35.2117 14.2 35.0436C14.5552 34.941 14.8657 34.8574 15.0869 34.7995C15.1973 34.7706 15.2853 34.7482 15.3451 34.7332L15.4128 34.7163L15.4295 34.7122L15.4333 34.7113L15.434 34.7111L15.4341 34.7111L15.4342 34.7111C15.4341 34.7111 15.4341 34.7111 15.434 34.7104L15.2669 32.7418L15.1978 33.7394C15.2669 32.7418 15.2665 32.7418 15.2662 32.7417L15.2654 32.7417L15.2636 32.7416L15.259 32.7413L15.2461 32.7405L15.2057 32.7384C15.1723 32.7368 15.1261 32.735 15.0677 32.7336C14.951 32.7309 14.7855 32.7297 14.5764 32.7353C14.1584 32.7465 13.5652 32.7845 12.8383 32.8903C11.3852 33.1018 9.39197 33.585 7.19858 34.6706L12.3378 35.6533ZM34.6389 49.4288C34.6341 49.4343 34.634 49.4342 34.6339 49.4341L34.6329 49.4333L34.631 49.4316L34.6273 49.4285L34.6212 49.4232L34.6192 49.4213C34.6118 49.4033 34.6005 49.3658 34.6029 49.3107C34.6064 49.2303 34.6338 49.1909 34.6336 49.1908C34.6335 49.1907 34.62 49.2098 34.5756 49.2473C34.4453 49.3576 34.1372 49.5449 33.4881 49.7463C30.9246 50.5409 25.4055 51.0894 19.8518 51.1611C17.0953 51.1966 14.372 51.1141 12.054 50.8939C10.2602 50.7235 8.77328 50.4759 7.71101 50.1643C8.24273 49.9489 8.83626 49.7742 9.16514 49.7015L9.16577 49.7014C9.64061 49.5962 10.0039 49.5553 10.2377 49.5399C10.3546 49.5322 10.4393 49.5309 10.4894 49.5312C10.5145 49.5313 10.531 49.5318 10.5385 49.5321C10.5395 49.5321 10.5403 49.5321 10.541 49.5322L14.0442 49.7797L11.1891 47.7228C10.7099 47.3776 10.0977 47.2793 9.5815 47.259C9.03198 47.2374 8.41938 47.2993 7.80737 47.4109C6.58475 47.6337 5.23252 48.0793 4.16084 48.621C3.62757 48.8905 3.12126 49.205 2.73018 49.5583C2.37342 49.8807 1.93499 50.3949 1.9125 51.0754C1.88641 51.8644 2.41134 52.3973 2.95259 52.7076C3.48957 53.0154 4.23297 53.2308 5.1547 53.3839L5.15489 53.3839C14.8461 54.9915 23.695 54.634 29.5283 53.5705C32.4087 53.0454 34.6812 52.3263 35.937 51.5053C36.2601 51.2941 36.5619 51.0472 36.7901 50.7556C37.0206 50.461 37.2148 50.0681 37.2051 49.5995C37.1851 48.6302 36.3643 48.07 35.6991 47.7629L34.6389 49.4288ZM6.83131 50.6364C6.83116 50.6364 6.83289 50.6344 6.83699 50.6303C6.83352 50.6344 6.83147 50.6365 6.83131 50.6364ZM34.623 49.4296C34.6248 49.4323 34.6254 49.4337 34.6254 49.4337C34.6253 49.4337 34.6244 49.4323 34.623 49.4296ZM10.9696 35.3444C10.9674 35.3432 10.9654 35.3421 10.9635 35.3411C10.9638 35.3411 10.9641 35.341 10.9644 35.3409C10.9661 35.3419 10.9678 35.3431 10.9696 35.3444Z" fill="#0074BD" stroke="#001E36" stroke-width="2"/>
<path d="M25.421 6.69608L26.1364 5.99739L23.564 3.36336L24.4504 6.93683C24.9035 8.76343 24.7229 10.2136 24.1908 11.4527C23.6477 12.7174 22.7094 13.8298 21.5366 14.9166C20.7466 15.6486 19.9067 16.3213 19.0402 17.0154C18.5962 17.371 18.1452 17.7322 17.6904 18.1098C16.3918 19.1881 15.1071 20.3677 14.1986 21.7637L14.1984 21.7639C13.5224 22.8032 13.2513 23.8975 13.3379 25.0196C13.4228 26.12 13.8464 27.1866 14.4569 28.2084C15.6642 30.2288 17.741 32.2929 20.0079 34.3856L21.6041 33.254C21.1606 32.2283 20.4828 31.2416 19.8646 30.3415C19.798 30.2446 19.7321 30.1487 19.6673 30.0539C18.97 29.0336 18.3714 28.1064 18.0451 27.1523C17.7327 26.239 17.6772 25.3185 18.0814 24.287C18.499 23.2216 19.4429 21.9475 21.3172 20.4326C26.319 16.3925 27.7377 12.8887 27.6999 10.217C27.6812 8.90196 27.308 7.86464 26.9339 7.152C26.7471 6.79617 26.5594 6.51973 26.4135 6.32705C26.3404 6.23056 26.2774 6.15455 26.2296 6.09956C26.2057 6.07205 26.1856 6.04974 26.1698 6.03271L26.1496 6.01109L26.1421 6.00325L26.139 6.00007L26.1377 5.99867C26.137 5.99802 26.1364 5.99739 25.421 6.69608Z" fill="#EA2D2E" stroke="#001E36" stroke-width="2"/>
<path d="M16.0176 56.6716L16.018 56.6716C20.3912 56.9577 25.9472 56.8801 30.4763 56.1938C32.7325 55.8519 34.8008 55.3496 36.3517 54.6282C37.8434 53.9344 39.1969 52.8712 39.3188 51.2473L37.4011 50.8198C37.3879 50.8144 37.388 50.814 37.3882 50.8136L37.3893 50.8106L37.3916 50.8048L37.3961 50.7936L37.4049 50.7731C37.4105 50.7603 37.4158 50.7493 37.4205 50.74C37.4299 50.7213 37.437 50.7097 37.4402 50.7047C37.4413 50.7029 37.442 50.702 37.442 50.702C37.442 50.702 37.4295 50.7201 37.3974 50.7541C37.3184 50.8379 37.121 51.0176 36.7053 51.2554C35.8668 51.735 34.1975 52.4187 30.9872 53.0367L30.9871 53.0367C23.7324 54.4343 14.7497 54.27 9.46225 53.3766L8.29565 53.1795V54.3626C8.36906 54.7387 8.59564 55.0768 8.6132 55.0936L8.63327 55.1118L8.64653 55.1233L8.65904 55.1338L8.67793 55.1491C8.6901 55.1588 8.70316 55.1688 8.71714 55.179C8.74516 55.1996 8.77799 55.2223 8.81624 55.2467C8.89271 55.2955 8.99188 55.3521 9.11938 55.4141C9.3737 55.538 9.74591 55.6864 10.2849 55.8399C11.36 56.146 13.1312 56.4816 16.0176 56.6716Z" fill="#0074BD" stroke="#001E36" stroke-width="2"/>
</svg>
