<svg width="61" height="61" viewBox="0 0 61 61" fill="none" xmlns="http://www.w3.org/2000/svg">
<path d="M43.993 2.92297H16.4464C8.6218 2.92297 2.29346 9.29117 2.29346 17.1285V44.7944C2.29346 52.6318 8.6218 59 16.4464 59H43.993C51.8176 59 58.146 52.6318 58.146 44.7944V17.1285C58.146 9.29117 51.8176 2.92297 43.993 2.92297Z" fill="#242938" stroke="#001E36" stroke-width="4"/>
<path d="M28.5747 11.2528C29.571 10.6801 30.8686 10.6775 31.8639 11.2528C36.8713 14.0946 41.8803 16.9318 46.8869 19.7753C47.8288 20.3081 48.4585 21.3606 48.449 22.4503V39.5473C48.4561 40.6822 47.764 41.7599 46.7705 42.2805C41.7795 45.1067 36.7909 47.9361 31.8007 50.7623C30.7841 51.3462 29.4604 51.3012 28.4753 50.6694C26.979 49.7983 25.4802 48.9313 23.9837 48.061C23.6779 47.878 23.3331 47.7323 23.1172 47.4345C23.3082 47.1761 23.6495 47.144 23.9268 47.0311C24.5513 46.8315 25.1251 46.5113 25.6987 46.2007C25.8439 46.101 26.021 46.1393 26.1601 46.2284C27.4396 46.9652 28.708 47.7235 29.9917 48.4532C30.2656 48.6121 30.5429 48.4012 30.777 48.2702C35.6747 45.4899 40.5784 42.7205 45.4754 39.9395C45.6569 39.8518 45.7571 39.6583 45.7423 39.4588C45.7458 33.8188 45.7432 28.178 45.7442 22.5378C45.7648 22.3116 45.6344 22.1033 45.4304 22.0105C40.4568 19.1974 35.4855 16.3801 30.5127 13.5663C30.4266 13.5068 30.3245 13.4748 30.22 13.4747C30.1154 13.4745 30.0133 13.5061 29.9269 13.5653C24.9539 16.3801 19.9838 19.2002 15.0108 22.013C14.8077 22.1059 14.6713 22.3108 14.6954 22.5378C14.6965 28.178 14.6954 33.8188 14.6954 39.4596C14.6868 39.557 14.7081 39.6548 14.7565 39.7397C14.8049 39.8245 14.878 39.8925 14.966 39.9344C16.2929 40.6901 17.6217 41.4405 18.9496 42.1938C19.6978 42.598 20.6161 42.8385 21.4405 42.5287C22.1677 42.2667 22.6775 41.5211 22.6637 40.7456C22.6706 35.1386 22.6603 29.5308 22.6688 23.9244C22.6506 23.6756 22.8857 23.4699 23.1267 23.4935C23.7644 23.489 24.4028 23.4848 25.0404 23.4951C25.3066 23.489 25.4897 23.7571 25.4569 24.0078C25.4542 29.6504 25.4638 35.293 25.4526 40.9354C25.4542 42.4394 24.8391 44.0757 23.4541 44.8115C21.748 45.6991 19.6391 45.5109 17.9534 44.6598C16.4943 43.9282 15.1016 43.0649 13.6683 42.2813C12.6722 41.7636 11.9835 40.6816 11.9906 39.5475V22.4503C11.9801 21.338 12.6351 20.2664 13.6059 19.7413C18.5961 16.9131 23.5855 14.0824 28.5747 11.2528Z" fill="#81CD39"/>
<path d="M32.9283 23.096C35.1047 22.9552 37.4346 23.0126 39.393 24.0896C40.9095 24.9146 41.7501 26.6466 41.7768 28.3385C41.7345 28.5665 41.4969 28.6925 41.28 28.6768C40.6486 28.676 40.0169 28.6855 39.3855 28.6725C39.1176 28.6829 38.962 28.4349 38.9284 28.1971C38.7469 27.3875 38.3072 26.5858 37.5486 26.1952C36.384 25.6098 35.0338 25.6392 33.7638 25.6515C32.8367 25.7007 31.8398 25.7814 31.0543 26.3289C30.4513 26.7436 30.2682 27.5809 30.4833 28.2553C30.6863 28.7395 31.2427 28.8957 31.6982 29.0397C34.321 29.7287 37.1004 29.66 39.6731 30.5666C40.7384 30.9362 41.7803 31.655 42.1449 32.775C42.6219 34.2763 42.4128 36.0705 41.3492 37.2756C40.4868 38.2673 39.2308 38.8072 37.978 39.1003C36.3114 39.4736 34.5819 39.4832 32.8894 39.3174C31.298 39.1351 29.6417 38.7153 28.4133 37.6263C27.3626 36.7101 26.8496 35.2824 26.9004 33.9048C26.9126 33.6721 27.1433 33.5098 27.3653 33.5289C28.0011 33.5238 28.6371 33.522 29.2729 33.5299C29.5271 33.5116 29.7152 33.7321 29.7284 33.9726C29.8455 34.7438 30.1341 35.5534 30.8039 36.0105C32.0962 36.848 33.718 36.7906 35.1978 36.814C36.4239 36.7595 37.8002 36.743 38.8006 35.9291C39.3284 35.4649 39.4848 34.6882 39.3422 34.0202C39.1876 33.4561 38.6 33.1933 38.0955 33.0214C35.5063 32.1989 32.6957 32.4973 30.1317 31.5671C29.0906 31.1977 28.0839 30.4991 27.6841 29.425C27.1261 27.9048 27.3817 26.0243 28.5567 24.8601C29.7023 23.7016 31.3559 23.2555 32.9283 23.096Z" fill="#81CD39"/>
</svg>
