<svg width="51" height="51" viewBox="0 0 51 51" fill="none" xmlns="http://www.w3.org/2000/svg">
<path d="M25.5 22.6666C32.5833 22.6666 38.6042 21.5569 43.5625 19.3375C48.5208 17.118 51 14.45 51 11.3333C51 8.21666 48.5208 5.54861 43.5625 3.32916C38.6042 1.10972 32.5833 0 25.5 0C18.4167 0 12.3958 1.10972 7.4375 3.32916C2.47917 5.54861 0 8.21666 0 11.3333C0 14.45 2.47917 17.118 7.4375 19.3375C12.3958 21.5569 18.4167 22.6666 25.5 22.6666ZM25.5 29.75C27.4361 29.75 29.8567 29.5488 32.7618 29.1465C35.6669 28.7441 38.4644 28.0953 41.1542 27.2C43.8439 26.3046 46.1578 25.1364 48.0958 23.6951C50.0338 22.2539 51.0019 20.4944 51 18.4166V25.5C51 27.5777 50.0319 29.3372 48.0958 30.7785C46.1597 32.2197 43.8458 33.388 41.1542 34.2833C38.4625 35.1786 35.6651 35.8284 32.7618 36.2326C29.8586 36.6369 27.438 36.8371 25.5 36.8333C23.562 36.8295 21.1423 36.6283 18.241 36.2298C15.3397 35.8312 12.5413 35.1824 9.84583 34.2833C7.15039 33.3842 4.8365 32.2159 2.90417 30.7785C0.971834 29.341 0.00377778 27.5815 0 25.5V18.4166C0 20.4944 0.968056 22.2539 2.90417 23.6951C4.84028 25.1364 7.15417 26.3046 9.84583 27.2C12.5375 28.0953 15.3359 28.7451 18.241 29.1493C21.1461 29.5535 23.5658 29.7537 25.5 29.75ZM25.5 43.9166C27.4361 43.9166 29.8567 43.7155 32.7618 43.3131C35.6669 42.9108 38.4644 42.262 41.1542 41.3666C43.8439 40.4713 46.1578 39.303 48.0958 37.8618C50.0338 36.4206 51.0019 34.6611 51 32.5833V39.6666C51 41.7444 50.0319 43.5039 48.0958 44.9451C46.1597 46.3863 43.8458 47.5546 41.1542 48.45C38.4625 49.3453 35.6651 49.9951 32.7618 50.3993C29.8586 50.8035 27.438 51.0037 25.5 50.9999C23.562 50.9962 21.1423 50.795 18.241 50.3965C15.3397 49.9979 12.5413 49.3491 9.84583 48.45C7.15039 47.5508 4.8365 46.3826 2.90417 44.9451C0.971834 43.5077 0.00377778 41.7482 0 39.6666V32.5833C0 34.6611 0.968056 36.4206 2.90417 37.8618C4.84028 39.303 7.15417 40.4713 9.84583 41.3666C12.5375 42.262 15.3359 42.9117 18.241 43.316C21.1461 43.7202 23.5658 43.9204 25.5 43.9166Z" fill="#00C6B9"/>
</svg>
