<svg width="60" height="61" viewBox="0 0 60 61" fill="none" xmlns="http://www.w3.org/2000/svg">
<path d="M29.9032 4.57483C16.8124 4.57483 17.6297 10.276 17.6297 10.276L17.6443 16.1825H30.1366V17.9558H12.6825C12.6825 17.9558 4.30566 17.0017 4.30566 30.2665C4.30566 43.5317 11.6172 43.0612 11.6172 43.0612H15.9807V36.9057C15.9807 36.9057 15.7454 29.5631 23.1755 29.5631H35.5657C35.5657 29.5631 42.5268 29.676 42.5268 22.8067V11.4486C42.5268 11.4486 43.5841 4.57483 29.9032 4.57483ZM23.0149 8.54686C23.3101 8.5466 23.6025 8.60479 23.8753 8.71812C24.1481 8.83144 24.3959 8.99768 24.6047 9.20731C24.8134 9.41693 24.9789 9.66584 25.0918 9.93979C25.2046 10.2137 25.2626 10.5073 25.2623 10.8038C25.2626 11.1003 25.2046 11.3939 25.0918 11.6678C24.9789 11.9417 24.8134 12.1906 24.6047 12.4003C24.3959 12.6099 24.1481 12.7761 23.8753 12.8895C23.6025 13.0028 23.3101 13.061 23.0149 13.0607C22.7197 13.061 22.4274 13.0028 22.1546 12.8895C21.8818 12.7761 21.634 12.6099 21.4252 12.4003C21.2165 12.1906 21.0509 11.9417 20.9381 11.6678C20.8253 11.3939 20.7673 11.1003 20.7676 10.8038C20.7673 10.5073 20.8253 10.2137 20.9381 9.93979C21.0509 9.66584 21.2165 9.41693 21.4252 9.20731C21.634 8.99768 21.8818 8.83144 22.1546 8.71812C22.4274 8.60479 22.7197 8.5466 23.0149 8.54686Z" fill="url(#paint0_linear_77_44)"/>
<path d="M30.275 56.0916C43.3658 56.0916 42.5484 50.3905 42.5484 50.3905L42.5339 44.4841H30.0413V42.7108H47.4955C47.4955 42.7108 55.8723 43.6649 55.8723 30.3997C55.8723 17.1348 48.5608 17.6052 48.5608 17.6052H44.1973V23.7606C44.1973 23.7606 44.4325 31.1032 37.0025 31.1032H24.6123C24.6123 31.1032 17.6511 30.9902 17.6511 37.8598V49.218C17.6511 49.218 16.5943 56.0916 30.275 56.0916ZM37.163 52.12C36.8678 52.1203 36.5755 52.0621 36.3027 51.9487C36.0299 51.8354 35.7821 51.6692 35.5733 51.4595C35.3646 51.2499 35.1991 51.001 35.0862 50.7271C34.9734 50.4531 34.9154 50.1595 34.9157 49.8631C34.9154 49.5666 34.9733 49.273 35.0861 48.999C35.199 48.725 35.3645 48.4761 35.5732 48.2664C35.782 48.0568 36.0299 47.8905 36.3026 47.7772C36.5754 47.6639 36.8678 47.6057 37.163 47.6059C37.4582 47.6057 37.7506 47.6639 38.0234 47.7772C38.2962 47.8905 38.544 48.0567 38.7528 48.2664C38.9615 48.476 39.127 48.7249 39.2399 48.9989C39.3527 49.2728 39.4107 49.5664 39.4104 49.8629C39.4107 50.1593 39.3527 50.4529 39.2399 50.7269C39.127 51.0008 38.9615 51.2497 38.7528 51.4593C38.544 51.669 38.2962 51.8352 38.0234 51.9485C37.7506 52.0619 37.4582 52.1203 37.163 52.12Z" fill="url(#paint1_linear_77_44)"/>
<path d="M15.63 10.3703L15.6437 15.9558H12.7667C12.7493 15.9545 12.7305 15.9533 12.7104 15.9521C12.6119 15.946 12.4816 15.9408 12.3241 15.9407C12.0101 15.9405 11.582 15.9604 11.0769 16.0361C10.0693 16.1873 8.72152 16.5665 7.37189 17.4814C4.56291 19.3855 2.30566 23.2 2.30566 30.2665C2.30566 37.2496 4.23831 41.1161 6.67253 43.1676C7.86464 44.1723 9.07635 44.6505 10.0116 44.8731C10.4774 44.984 10.8756 45.0319 11.1728 45.0513C11.3217 45.061 11.4464 45.0637 11.5428 45.0633C11.5871 45.0631 11.6256 45.0623 11.6579 45.0612H15.6511V49.1106C15.6508 49.114 15.6505 49.1175 15.6502 49.1211C15.6417 49.2179 15.6343 49.3422 15.6326 49.4902C15.6292 49.7853 15.6485 50.1804 15.7307 50.6424C15.8966 51.5745 16.3186 52.7731 17.3025 53.9425C19.2914 56.3063 23.1561 58.0916 30.275 58.0916C37.0356 58.0916 40.7495 56.6314 42.7316 54.6586C43.7336 53.6614 44.2103 52.6091 44.4167 51.7468C44.518 51.3233 44.5518 50.9568 44.5576 50.6767C44.5605 50.5365 44.5564 50.4168 44.55 50.3212C44.5494 50.3126 44.5488 50.3043 44.5482 50.2961L44.5345 44.7108H47.4113C47.4287 44.7121 47.4475 44.7134 47.4676 44.7146C47.5661 44.7206 47.6964 44.7258 47.8538 44.7259C48.1679 44.7262 48.596 44.7063 49.1011 44.6305C50.1087 44.4793 51.4565 44.1001 52.8061 43.1852C55.6151 41.2811 57.8723 37.4665 57.8723 30.3997C57.8723 23.4167 55.9397 19.5503 53.5054 17.4988C52.3133 16.4941 51.1016 16.0159 50.1663 15.7933C49.7006 15.6824 49.3023 15.6345 49.0052 15.6151C48.8563 15.6054 48.7316 15.6028 48.6352 15.6032C48.5908 15.6033 48.5523 15.6041 48.5201 15.6052H44.5268V11.5561C44.5271 11.5527 44.5275 11.5492 44.5278 11.5457C44.5362 11.4489 44.5437 11.3245 44.5454 11.1766C44.5488 10.8814 44.5296 10.4864 44.4473 10.0243C44.2815 9.09222 43.8596 7.89355 42.8758 6.72415C40.8869 4.36019 37.0222 2.57483 29.9032 2.57483C23.1425 2.57483 19.4287 4.03504 17.4465 6.00785C16.4446 7.00505 15.9679 8.05735 15.7615 8.91965C15.6602 9.3431 15.6264 9.70966 15.6206 9.98971C15.6177 10.13 15.6218 10.2496 15.6282 10.3453C15.6288 10.3538 15.6294 10.3621 15.63 10.3703ZM23.0167 10.5469C23.0478 10.5468 23.0788 10.5529 23.108 10.5651C23.1372 10.5772 23.1642 10.5952 23.1874 10.6185C23.2106 10.6418 23.2295 10.67 23.2425 10.7016C23.2555 10.7332 23.2623 10.7673 23.2623 10.802L23.2623 10.8056C23.2623 10.8403 23.2555 10.8744 23.2425 10.906C23.2295 10.9376 23.2107 10.9658 23.1874 10.9891C23.1642 11.0124 23.1372 11.0304 23.108 11.0425L23.8641 12.8626L23.108 11.0425C23.0788 11.0546 23.0478 11.0607 23.0167 11.0607L23.0131 11.0607C22.9821 11.0607 22.9511 11.0546 22.9219 11.0425L22.1612 12.8734L22.9219 11.0425C22.8927 11.0304 22.8656 11.0124 22.8424 10.9891C22.8192 10.9658 22.8004 10.9376 22.7873 10.906C22.7743 10.8744 22.7675 10.8403 22.7676 10.8056L22.7676 10.802C22.7675 10.7673 22.7743 10.7332 22.7873 10.7016C22.8004 10.67 22.8192 10.6418 22.8424 10.6185C22.8656 10.5952 22.8927 10.5772 22.9219 10.5651L22.1546 8.71812L22.9219 10.5651C22.9511 10.5529 22.9821 10.5468 23.0131 10.5469L23.0167 10.5469ZM36.9157 49.8649L36.9157 49.8611C36.9156 49.8264 36.9224 49.7922 36.9354 49.7606C36.9484 49.7291 36.9673 49.7009 36.9905 49.6776C37.0137 49.6543 37.0408 49.6363 37.07 49.6241C37.0992 49.612 37.1302 49.6059 37.1612 49.6059L37.1648 49.6059C37.1959 49.6059 37.2269 49.612 37.2561 49.6241C37.2853 49.6363 37.3123 49.6543 37.3355 49.6776L38.7528 48.2664L37.3356 49.6776C37.3588 49.7009 37.3776 49.729 37.3906 49.7606C37.4036 49.7922 37.4104 49.8264 37.4104 49.8611L37.4104 49.8647C37.4104 49.8993 37.4036 49.9335 37.3906 49.9651C37.3776 49.9967 37.3588 50.0248 37.3355 50.0481C37.3123 50.0714 37.2852 50.0895 37.2561 50.1016C37.226 50.1141 37.195 50.12 37.1648 50.12L37.1612 50.12C37.1302 50.12 37.0992 50.1139 37.07 50.1018C37.0408 50.0896 37.0137 50.0716 36.9905 50.0483C36.9673 50.025 36.9485 49.9969 36.9355 49.9653C36.9224 49.9337 36.9156 49.8995 36.9157 49.8649Z" stroke="#001E36" stroke-width="4"/>
<defs>
<linearGradient id="paint0_linear_77_44" x1="672.558" y1="624.785" x2="4107.72" y2="4036.56" gradientUnits="userSpaceOnUse">
<stop stop-color="#387EB8"/>
<stop offset="1" stop-color="#366994"/>
</linearGradient>
<linearGradient id="paint1_linear_77_44" x1="749.089" y1="809.658" x2="3504.38" y2="3403.29" gradientUnits="userSpaceOnUse">
<stop stop-color="#FFE052"/>
<stop offset="1" stop-color="#FFC331"/>
</linearGradient>
</defs>
</svg>
