<svg width="39" height="40" viewBox="0 0 39 40" fill="none" xmlns="http://www.w3.org/2000/svg">
<path d="M0.9375 20.375H35.0625C35.278 20.375 35.4847 20.2894 35.637 20.137C35.7894 19.9847 35.875 19.778 35.875 19.5625V13.875C35.8752 13.6615 35.8333 13.4501 35.7517 13.2529C35.6702 13.0556 35.5505 12.8763 35.3997 12.7253L24.0247 1.35031C23.8737 1.19946 23.6944 1.07983 23.4971 0.998279C23.2999 0.916723 23.0885 0.874833 22.875 0.875001H3.375C2.51305 0.875001 1.6864 1.21741 1.0769 1.8269C0.46741 2.4364 0.125 3.26305 0.125 4.125V19.5625C0.125 19.778 0.210603 19.9847 0.362976 20.137C0.515349 20.2894 0.722012 20.375 0.9375 20.375ZM22.875 4.9375L31.8125 13.875H22.875V4.9375ZM38.3125 38.3577C38.2761 38.7753 38.0832 39.1638 37.7724 39.4452C37.4616 39.7267 37.056 39.8802 36.6367 39.875H31C30.569 39.875 30.1557 39.7038 29.851 39.399C29.5462 39.0943 29.375 38.681 29.375 38.25V26.9298C29.3698 26.5106 29.5233 26.1049 29.8048 25.7941C30.0862 25.4833 30.4747 25.2904 30.8923 25.2541C31.1146 25.2393 31.3376 25.2704 31.5473 25.3454C31.7571 25.4205 31.9492 25.5378 32.1116 25.6902C32.2741 25.8426 32.4035 26.0268 32.4919 26.2313C32.5802 26.4358 32.6255 26.6563 32.625 26.8791V36.6291H36.6875C36.9099 36.6286 37.13 36.6738 37.3343 36.7619C37.5385 36.8499 37.7225 36.979 37.8748 37.141C38.0271 37.3031 38.1446 37.4947 38.2199 37.7039C38.2951 37.9132 38.3267 38.1357 38.3125 38.3577ZM10.6509 35.8755C10.5876 36.497 10.3874 37.0968 10.0646 37.6317C9.74182 38.1666 9.30455 38.6233 8.78422 38.9691C7.73 39.6719 6.42187 39.875 5.23156 39.875C4.19344 39.8696 3.16016 39.7331 2.15625 39.4688C1.7461 39.3486 1.39979 39.0718 1.19232 38.6981C0.984846 38.3245 0.93292 37.8842 1.04779 37.4725C1.16265 37.0609 1.43507 36.711 1.80602 36.4988C2.17697 36.2866 2.6166 36.229 3.02969 36.3386C3.91937 36.5823 6.06641 36.887 7.00078 36.2655C7.18156 36.1456 7.3725 35.9567 7.43547 35.4672C7.50656 34.9248 7.29125 34.6344 4.83953 33.9255C2.94031 33.377 -0.238594 32.4569 0.167656 29.2313C0.230885 28.6219 0.427445 28.034 0.743387 27.5092C1.05933 26.9844 1.48691 26.5356 1.99578 26.1945C4.40078 24.5695 8.23578 25.5222 8.66438 25.6339C8.87084 25.6883 9.06456 25.7829 9.23448 25.9122C9.40441 26.0414 9.5472 26.2029 9.65471 26.3874C9.76222 26.5719 9.83235 26.7757 9.86109 26.9873C9.88982 27.1988 9.8766 27.414 9.82219 27.6205C9.76777 27.8269 9.67322 28.0207 9.54394 28.1906C9.41465 28.3605 9.25317 28.5033 9.0687 28.6108C8.88423 28.7183 8.68039 28.7884 8.46882 28.8172C8.25725 28.8459 8.04209 28.8327 7.83562 28.7783C6.92359 28.5406 4.74406 28.2583 3.80969 28.892C3.68721 28.9747 3.58637 29.0855 3.51568 29.2152C3.44498 29.345 3.40648 29.4898 3.40344 29.6375C3.37906 29.8203 3.375 29.8569 3.63094 30.0234C4.10016 30.3261 4.93906 30.5678 5.75359 30.8034C7.74219 31.3783 11.1059 32.3594 10.6509 35.8755ZM25.0728 36.5316C25.7658 35.3238 26.1287 33.9549 26.125 32.5625C26.125 28.5305 23.2102 25.25 19.625 25.25C16.0398 25.25 13.125 28.5305 13.125 32.5625C13.125 36.5945 16.0398 39.875 19.625 39.875C20.7728 39.8707 21.8948 39.5334 22.8547 38.9041L23.3503 39.3997C23.5083 39.5576 23.6971 39.6812 23.905 39.7628C24.1129 39.8445 24.3354 39.8824 24.5586 39.8742C24.7818 39.866 25.001 39.8119 25.2023 39.7152C25.4037 39.6185 25.5829 39.4814 25.7289 39.3123C25.9955 38.9902 26.1308 38.5793 26.1079 38.1618C26.0849 37.7442 25.9053 37.3507 25.605 37.0597L25.0728 36.5316ZM19.625 36.625C17.8334 36.625 16.375 34.7969 16.375 32.5625C16.375 30.3281 17.8334 28.5 19.625 28.5C21.4166 28.5 22.875 30.3281 22.875 32.5625C22.8753 33.0804 22.7944 33.5951 22.6353 34.088L22.4464 33.8991C22.1465 33.59 21.7388 33.4088 21.3084 33.3933C20.878 33.3778 20.4583 33.5291 20.1369 33.8158C19.9781 33.9648 19.851 34.1442 19.7629 34.3434C19.6749 34.5425 19.6278 34.7573 19.6244 34.975C19.621 35.1927 19.6613 35.4089 19.7431 35.6107C19.8249 35.8124 19.9463 35.9958 20.1003 36.1497L20.4416 36.4889C20.1782 36.5769 19.9026 36.6228 19.625 36.625Z" fill="#00C6B9"/>
</svg>
