<svg width="72" height="72" viewBox="0 0 72 72" fill="none" xmlns="http://www.w3.org/2000/svg">
<circle cx="35.565" cy="35.565" r="33.565" stroke="#00C6B9" stroke-width="4"/>
<path fill-rule="evenodd" clip-rule="evenodd" d="M29.9284 15.8369C28.6204 15.8369 27.3659 16.3565 26.441 17.2814C25.516 18.2064 24.9964 19.4609 24.9964 20.7689V24.2918H21.4735C19.9786 24.2918 18.5449 24.8856 17.4878 25.9427C16.4308 26.9998 15.8369 28.4335 15.8369 29.9284V49.6565C15.8369 51.1514 16.4308 52.5851 17.4878 53.6422C18.5449 54.6993 19.9786 55.2931 21.4735 55.2931H49.6566C51.1515 55.2931 52.5852 54.6993 53.6422 53.6422C54.6993 52.5851 55.2932 51.1514 55.2932 49.6565V29.9284C55.2932 28.4335 54.6993 26.9998 53.6422 25.9427C52.5852 24.8856 51.1515 24.2918 49.6566 24.2918H46.1337V20.7689C46.1337 19.4609 45.6141 18.2064 44.6891 17.2814C43.7642 16.3565 42.5097 15.8369 41.2016 15.8369H29.9284ZM41.9062 24.2918V20.7689C41.9062 20.582 41.832 20.4028 41.6999 20.2707C41.5677 20.1386 41.3885 20.0643 41.2016 20.0643H29.9284C29.7416 20.0643 29.5624 20.1386 29.4302 20.2707C29.2981 20.4028 29.2239 20.582 29.2239 20.7689V24.2918H41.9062ZM21.4735 28.5192H49.6566C50.0303 28.5192 50.3887 28.6677 50.653 28.932C50.9172 29.1962 51.0657 29.5547 51.0657 29.9284V32.7467H20.0644V29.9284C20.0644 29.5547 20.2128 29.1962 20.4771 28.932C20.7414 28.6677 21.0998 28.5192 21.4735 28.5192ZM20.0644 36.9742V49.6565C20.0644 50.0302 20.2128 50.3887 20.4771 50.6529C20.7414 50.9172 21.0998 51.0657 21.4735 51.0657H49.6566C50.0303 51.0657 50.3887 50.9172 50.653 50.6529C50.9172 50.3887 51.0657 50.0302 51.0657 49.6565V36.9742H38.3833V41.2016H32.7467V36.9742H20.0644Z" fill="#00C6B9"/>
</svg>
