<svg width="61" height="61" viewBox="0 0 61 61" fill="none" xmlns="http://www.w3.org/2000/svg">
<g clip-path="url(#clip0_350_421)">
<circle cx="30.5001" cy="30.5" r="29.524" fill="white"/>
<path fill-rule="evenodd" clip-rule="evenodd" d="M30.5449 60.1536C46.8791 60.1288 60.1018 46.8418 60.1018 30.4519C60.1018 14.3283 46.9401 1.04938 31.2159 0.76868C14.7021 0.474164 0.902728 13.8741 0.898439 30.1235C0.893673 46.8408 14.0573 60.1774 30.5449 60.1536ZM30.4968 2.20647C46.179 2.20123 58.674 14.9426 58.6692 30.9337C58.664 46.0307 45.8378 58.6601 30.5082 58.6634C14.8908 58.6667 2.33146 46.0045 2.33194 30.2565C2.33289 14.9145 15.0876 2.21171 30.4968 2.20647ZM18.6609 17.1067C18.9173 17.9611 18.1996 18.2585 17.4366 18.3181C16.6336 18.38 15.831 18.4406 14.8989 18.5116C17.9756 27.6778 21.006 36.7082 24.1085 45.9487C24.3296 45.587 24.4206 45.485 24.4606 45.3659C26.1639 40.2752 27.8766 35.1879 29.5365 30.083C29.6881 29.6174 29.6128 29.0007 29.4469 28.5222C28.5686 25.9869 27.5164 23.5069 26.7462 20.9411C26.2196 19.1845 25.521 18.0479 23.4446 18.2514C23.091 18.2862 22.6592 17.5251 22.2632 17.1319C22.7422 16.846 23.2178 16.3199 23.701 16.3127C27.9291 16.2478 32.158 16.249 36.3861 16.3165C36.8713 16.3246 37.3469 16.8646 37.8258 17.1577C37.4065 17.5408 37.0448 18.1156 36.5544 18.2638C35.7676 18.5011 34.895 18.4563 33.9533 18.5402L43.1743 45.9711C44.5711 41.3313 45.8707 37.0708 47.1345 32.7994C48.2621 28.9864 47.5901 25.4255 45.5514 22.0672C44.9385 21.0574 44.1856 20.0776 43.8381 18.9762C43.4436 17.7233 43.1157 16.297 43.3249 15.0403C43.6799 12.9105 45.3141 11.853 47.5253 11.6505C35.4244 0.419837 16.4086 4.44012 9.40174 16.6425C12.0991 16.5181 14.6744 16.3547 17.2517 16.3194C17.7387 16.3132 18.5465 16.7249 18.6609 17.1067ZM23.4823 54.2647C23.426 54.4291 23.4227 54.6121 23.3784 54.8852C28.5934 56.3311 33.7079 56.2267 38.9424 54.463L30.9457 32.5602C28.3866 39.9998 25.9323 47.1311 23.4823 54.2647ZM19.4524 53.2744L7.40447 20.2248C1.96927 30.8417 6.10393 47.04 19.4524 53.2744ZM55.8752 32.0379C56.2574 27.0177 54.5255 20.0671 53.0301 19.1111C52.8633 20.9578 52.9796 23.0122 52.4496 24.8842C51.2025 29.2948 49.6775 33.6286 48.2087 37.9744C46.6122 42.6981 44.9528 47.4003 43.3206 52.1121C50.9894 47.5662 55.2037 40.8566 55.8752 32.0379Z" fill="#0074BD"/>
</g>
<defs>
<clipPath id="clip0_350_421">
<rect width="61" height="61" fill="white"/>
</clipPath>
</defs>
</svg>
